<?xml version="1.0" standalone="no"?>
<!DOCTYPE svg PUBLIC "-//W3C//DTD SVG 20010904//EN"
 "http://www.w3.org/TR/2001/REC-SVG-20010904/DTD/svg10.dtd">
<svg version="1.0" xmlns="http://www.w3.org/2000/svg"
 width="900.000000pt" height="900.000000pt" viewBox="0 0 900.000000 900.000000"
 preserveAspectRatio="xMidYMid meet">
<metadata>
Created by potrace 1.14, written by Peter Selinger 2001-2017
</metadata>
<g transform="translate(0.000000,900.000000) scale(0.100000,-0.100000)"
fill="#000000" stroke="none">
<path d="M0 4500 l0 -4500 1723 0 1722 1 -60 52 c-80 69 -199 189 -255 256
-122 148 -167 234 -211 407 -27 104 -30 131 -26 214 3 52 12 116 21 141 9 27
18 93 20 155 4 108 43 320 66 364 6 12 20 46 30 76 18 52 18 53 -1 78 -11 14
-48 42 -81 61 -55 32 -99 65 -248 181 -150 117 -315 295 -364 392 -24 47 -53
191 -61 296 -3 49 -8 93 -12 99 -3 6 -5 64 -4 129 1 65 -1 118 -5 118 -4 0
-37 -18 -73 -40 -75 -44 -189 -90 -227 -90 -14 0 -67 -12 -117 -26 -83 -24
-108 -27 -257 -27 -246 1 -369 26 -515 108 -122 68 -184 145 -118 145 15 0 53
-7 85 -16 76 -22 99 -12 194 81 58 58 81 90 119 168 48 99 68 177 46 177 -7 0
-31 -13 -54 -29 -139 -95 -278 -124 -337 -69 -35 33 -22 51 45 63 93 17 146
52 217 143 118 151 172 300 172 482 l1 115 -51 105 c-28 58 -68 153 -88 213
-21 59 -53 149 -72 200 -19 50 -55 148 -79 217 -67 195 -81 231 -110 292 -25
54 -31 60 -108 100 -142 74 -273 228 -325 383 -61 180 -65 199 -72 345 l-7
145 -41 75 c-82 152 -124 381 -124 685 -1 322 41 552 152 828 171 425 528 852
952 1138 49 33 88 62 88 64 0 3 -349 5 -775 5 l-775 0 0 -4500z"/>
<path d="M1590 8985 c-7 -8 -9 -24 -5 -37 7 -23 7 -23 -9 -3 -8 11 -16 16 -17
10 -1 -5 -3 -14 -4 -20 -2 -5 -3 -14 -4 -19 0 -5 -7 -3 -15 3 -10 8 -16 9 -21
1 -3 -6 -10 -8 -15 -5 -5 3 -7 -3 -5 -14 2 -13 -1 -18 -10 -15 -7 3 -16 0 -20
-5 -3 -6 -11 -8 -17 -5 -7 4 -8 2 -4 -5 6 -9 12 -9 24 1 15 10 15 10 4 -2 -7
-8 -18 -15 -25 -15 -7 -1 -11 -7 -9 -14 1 -7 -2 -10 -7 -6 -6 3 -8 13 -5 23 5
15 4 15 -6 -1 -9 -14 -9 -22 2 -35 9 -12 5 -11 -11 3 -22 18 -24 18 -18 2 4
-11 3 -16 -4 -12 -12 8 -41 -14 -34 -26 3 -4 -3 -6 -14 -4 -15 3 -18 -1 -14
-18 4 -18 3 -19 -6 -7 -10 13 -11 13 -11 0 0 -13 -1 -13 -10 0 -8 11 -10 8 -8
-15 3 -27 0 -30 -24 -29 -26 1 -33 -7 -29 -30 1 -5 -6 -3 -16 4 -10 8 -15 11
-11 6 10 -12 -10 -46 -27 -46 -8 0 -15 -6 -15 -14 0 -8 -4 -18 -10 -21 -6 -4
-7 1 -3 12 3 10 -3 6 -16 -10 -13 -15 -27 -24 -33 -21 -5 4 -4 -4 2 -17 7 -13
9 -21 5 -17 -5 4 -15 2 -23 -5 -13 -10 -15 -9 -8 3 4 8 0 6 -8 -5 -9 -11 -14
-25 -12 -32 3 -7 1 -13 -4 -13 -6 0 -10 5 -10 10 0 6 -6 5 -14 -2 -7 -7 -11
-19 -8 -27 4 -10 1 -12 -8 -6 -10 6 -12 4 -7 -8 4 -11 2 -14 -9 -10 -9 3 -14
-1 -14 -12 0 -10 5 -13 12 -9 7 5 8 3 3 -5 -5 -9 -10 -10 -18 -2 -16 16 -27
13 -20 -6 4 -11 3 -14 -5 -9 -7 4 -12 1 -12 -9 0 -10 -5 -13 -12 -9 -8 5 -9 2
-5 -10 4 -10 3 -15 -3 -11 -10 6 -33 -29 -24 -37 2 -3 -4 -11 -13 -19 -16 -13
-17 -12 -5 3 10 12 10 18 1 24 -7 4 -9 3 -5 -4 3 -6 1 -14 -5 -17 -5 -4 -8
-14 -4 -22 5 -14 3 -14 -12 -2 -9 8 -14 9 -10 3 3 -6 -1 -20 -9 -30 -9 -10
-12 -13 -8 -5 4 9 3 12 -4 7 -6 -4 -9 -13 -6 -20 3 -8 0 -17 -5 -21 -6 -3 -9
-10 -6 -15 3 -5 -4 -7 -16 -5 -17 3 -19 2 -9 -10 7 -8 17 -12 23 -8 6 4 7 1 2
-6 -5 -9 -10 -10 -18 -2 -15 15 -48 -16 -40 -37 5 -12 2 -14 -13 -8 -15 6 -17
5 -6 -6 10 -10 8 -16 -10 -31 -13 -10 -17 -16 -10 -12 6 3 12 1 12 -4 0 -6 -6
-11 -14 -11 -8 0 -18 -5 -22 -12 -5 -7 -2 -9 7 -4 8 4 6 1 -3 -7 -19 -15 -25
-33 -9 -22 5 3 13 0 17 -6 4 -7 3 -9 -3 -6 -6 4 -16 0 -23 -8 -7 -8 -17 -12
-22 -9 -6 4 -5 -2 1 -14 8 -15 7 -23 -4 -32 -8 -7 -12 -17 -8 -23 3 -6 1 -7
-5 -3 -20 12 -35 -4 -20 -22 7 -9 8 -13 2 -9 -7 4 -14 -1 -16 -11 -7 -24 -4
-37 5 -34 5 1 6 -2 3 -7 -3 -5 -16 -7 -29 -4 -18 4 -19 3 -7 -6 13 -9 8 -15
-12 -12 -4 0 -5 -11 -2 -24 2 -14 0 -25 -5 -25 -5 0 -11 -9 -14 -21 -3 -12
-10 -18 -15 -15 -5 3 -8 -8 -6 -24 2 -19 -1 -30 -9 -30 -8 0 -7 -4 3 -10 10
-6 11 -10 3 -10 -7 0 -13 -5 -13 -11 0 -5 6 -7 13 -3 7 4 9 3 4 -2 -5 -5 -13
-10 -18 -10 -5 -1 -12 -2 -16 -3 -4 0 2 -8 13 -17 10 -8 13 -13 7 -9 -7 3 -21
1 -30 -5 -16 -10 -16 -11 2 -5 15 5 17 3 8 -6 -6 -6 -9 -18 -6 -27 5 -11 3
-13 -8 -7 -12 8 -12 6 0 -8 12 -15 11 -17 -3 -17 -10 0 -14 -5 -10 -11 3 -6 0
-15 -7 -20 -10 -6 -11 -9 -1 -9 6 0 12 -5 12 -11 0 -5 -6 -7 -12 -3 -9 5 -9 3
1 -9 11 -14 11 -18 -1 -22 -10 -4 -14 -16 -12 -36 3 -22 0 -28 -9 -23 -6 4 -9
4 -5 -1 4 -4 3 -16 -3 -26 -7 -13 -6 -26 2 -40 9 -17 8 -20 -2 -14 -9 6 -11 3
-6 -8 3 -10 2 -17 -3 -17 -5 0 -7 -11 -4 -25 3 -15 0 -25 -8 -25 -9 0 -9 -3 0
-12 14 -14 16 -32 4 -24 -5 3 -8 -17 -6 -45 2 -32 -1 -47 -8 -43 -5 4 -3 -5 7
-19 12 -19 13 -27 4 -33 -7 -4 -9 -3 -5 4 3 6 3 13 -2 16 -4 2 -8 -6 -8 -20 0
-25 5 -29 22 -16 5 4 2 0 -7 -9 -16 -14 -16 -16 0 -27 14 -10 14 -11 0 -6 -10
3 -19 -2 -23 -11 -4 -11 -2 -14 6 -9 8 5 9 2 5 -10 -4 -10 -3 -15 3 -11 6 3
10 1 10 -4 0 -6 -4 -11 -8 -11 -5 0 -9 -20 -8 -44 0 -25 4 -42 8 -40 4 3 8 0
8 -5 0 -6 -5 -11 -12 -11 -6 0 -4 -6 7 -13 12 -10 14 -16 7 -21 -7 -4 -12 -12
-12 -18 0 -6 6 -6 15 2 13 11 14 10 9 -4 -3 -9 -13 -16 -21 -16 -8 0 -12 -4
-8 -10 3 -5 13 -7 23 -4 14 5 14 4 3 -4 -17 -12 -22 -50 -8 -59 6 -4 7 -1 2 7
-5 9 -4 11 4 6 6 -4 9 -12 5 -17 -3 -5 0 -18 7 -27 10 -12 6 -11 -10 3 l-24
20 10 -20 c6 -11 8 -26 6 -32 -3 -7 1 -13 7 -13 9 0 9 -5 -1 -17 -10 -11 -10
-14 -2 -9 8 4 13 1 13 -9 0 -10 -5 -13 -12 -9 -7 4 -2 -5 12 -21 14 -16 20
-25 14 -22 -6 3 -11 0 -11 -8 0 -8 4 -12 8 -10 4 3 10 -2 13 -11 3 -8 2 -12
-4 -9 -12 7 -2 -23 14 -44 8 -11 8 -13 0 -8 -6 3 -11 0 -11 -8 0 -8 5 -12 10
-8 5 3 6 -3 2 -16 -5 -17 -3 -20 12 -14 14 5 16 3 6 -7 -13 -14 2 -60 20 -60
5 0 4 -6 -2 -14 -8 -10 -9 -16 -1 -21 6 -3 8 -11 5 -16 -3 -5 1 -6 9 -3 11 4
16 0 16 -10 0 -9 5 -16 10 -16 6 0 10 -5 10 -11 0 -5 -6 -7 -13 -3 -8 5 -8 2
2 -9 14 -18 26 -23 16 -8 -3 5 -1 12 4 15 5 4 8 -5 7 -18 -2 -14 0 -30 5 -37
4 -7 3 -23 -1 -35 -6 -14 -5 -26 0 -29 6 -4 10 -11 10 -16 0 -6 -4 -8 -8 -5
-5 3 -9 -1 -9 -9 0 -8 4 -12 7 -10 4 3 6 -15 5 -40 -2 -25 1 -45 6 -45 6 0 7
-5 4 -10 -4 -6 -11 -7 -17 -4 -7 4 -8 2 -4 -5 4 -6 11 -9 15 -7 4 3 8 -1 8 -9
0 -8 -4 -12 -9 -9 -4 3 -8 0 -8 -7 0 -7 9 -9 23 -6 20 6 21 5 4 -7 -14 -11
-15 -15 -5 -19 10 -4 10 -6 -1 -6 -11 -1 -10 -5 5 -17 19 -15 19 -16 0 -9 -20
6 -20 6 0 -16 10 -11 19 -24 19 -28 0 -3 3 -5 6 -4 3 1 5 -18 4 -43 -2 -24 1
-47 6 -50 5 -3 7 -10 4 -15 -4 -5 -1 -9 4 -9 6 0 11 -9 11 -20 0 -11 6 -20 14
-20 8 0 18 -4 21 -10 3 -5 0 -7 -8 -4 -8 3 -14 -1 -14 -10 0 -8 4 -13 8 -10 4
2 10 -5 14 -16 4 -12 11 -17 18 -13 7 4 5 -2 -3 -12 -9 -11 -10 -16 -3 -11 9
4 13 1 13 -9 0 -10 6 -15 13 -12 8 3 14 -1 14 -9 0 -7 -5 -10 -10 -7 -6 3 -7
1 -3 -5 4 -7 17 -12 29 -13 21 0 21 -1 2 -9 -18 -8 -18 -9 -2 -9 10 -1 16 -5
13 -10 -3 -5 5 -12 18 -15 13 -3 27 -13 30 -23 6 -16 6 -16 -12 0 -10 9 -22
17 -26 17 -4 0 12 -16 36 -36 23 -21 42 -42 40 -48 -2 -7 2 -6 9 2 7 6 17 12
21 12 4 0 7 -6 5 -12 -1 -8 6 -12 17 -10 12 2 16 -1 10 -9 -5 -9 -2 -10 11 -5
16 6 16 4 4 -10 -13 -16 -12 -16 10 -5 15 8 21 9 17 2 -4 -6 -3 -11 3 -11 5 0
12 6 15 13 3 6 3 1 -1 -13 -5 -22 -4 -23 10 -12 13 11 21 10 46 -9 17 -13 31
-24 31 -26 0 -7 -39 17 -45 27 -8 13 -25 13 -25 0 0 -5 3 -9 7 -8 5 1 23 -7
40 -18 26 -17 30 -23 20 -34 -9 -10 -9 -11 1 -6 6 4 13 2 13 -3 2 -14 6 -29 9
-36 1 -3 3 -8 5 -12 9 -33 27 -63 37 -63 9 0 8 -3 -2 -10 -12 -8 -12 -10 -1
-10 8 0 11 -7 8 -19 -3 -11 2 -29 10 -40 8 -12 11 -27 7 -34 -6 -9 -5 -9 7 0
12 9 14 4 16 -30 2 -23 7 -43 12 -45 6 -2 7 -10 4 -19 -4 -10 -2 -14 5 -9 6 3
13 2 17 -4 3 -5 1 -10 -5 -10 -6 0 -8 -5 -5 -10 4 -6 12 -7 18 -3 7 4 6 -1 -2
-10 -12 -16 -12 -17 5 -10 16 6 17 4 6 -9 -13 -16 -7 -48 9 -48 4 0 5 -8 2
-17 -5 -13 -3 -15 13 -9 14 5 16 4 7 -4 -8 -9 -7 -25 7 -65 10 -29 16 -56 13
-59 -4 -3 -2 -6 4 -6 6 0 14 -16 17 -36 6 -31 9 -34 24 -22 9 8 13 8 9 1 -4
-6 -3 -23 3 -38 7 -17 7 -24 0 -20 -16 10 -12 0 10 -25 16 -18 17 -26 8 -37
-9 -11 -7 -15 10 -19 24 -7 36 -30 20 -40 -6 -4 -8 -3 -4 4 3 6 2 13 -3 16 -5
4 -8 -2 -7 -11 2 -9 8 -19 14 -21 6 -2 8 -11 5 -20 -6 -15 -5 -16 12 -2 17 14
18 14 8 -4 -8 -15 -7 -24 8 -39 14 -15 16 -24 8 -34 -14 -17 3 -17 20 0 11 9
11 7 0 -10 -12 -20 -11 -24 9 -39 17 -12 20 -19 12 -33 -13 -25 0 -35 17 -13
8 9 11 11 7 3 -12 -23 -15 -73 -4 -66 6 3 10 2 10 -4 0 -5 -4 -12 -10 -16 -5
-3 -1 -21 11 -42 15 -27 17 -34 5 -24 -9 7 -16 10 -17 5 0 -5 -2 -17 -4 -27
-2 -13 1 -17 11 -13 12 4 12 2 -1 -18 -8 -12 -12 -26 -8 -30 11 -10 12 -37 2
-30 -5 3 -9 -4 -9 -15 0 -10 -3 -28 -7 -38 -6 -16 -5 -17 13 -3 14 11 13 8 -4
-11 -25 -29 -39 -74 -19 -62 9 5 9 3 0 -8 -10 -12 -10 -18 0 -28 10 -11 7 -11
-13 -1 -14 7 -22 9 -18 5 4 -4 3 -17 -3 -28 -8 -13 -8 -17 -1 -13 6 4 10 -2 9
-13 -1 -14 -5 -17 -13 -10 -8 7 -15 6 -20 -2 -4 -7 -3 -9 3 -6 6 4 13 0 17 -8
3 -8 1 -14 -5 -12 -5 1 -17 -11 -27 -28 -9 -16 -21 -33 -26 -36 -5 -4 -5 -12
-2 -18 6 -9 -4 -15 -25 -13 -3 1 -6 -5 -6 -13 0 -8 4 -12 8 -10 3 3 13 -3 20
-13 13 -15 12 -16 -3 -4 -10 8 -18 9 -22 3 -4 -6 -14 -7 -24 -4 -14 5 -14 3 2
-9 10 -8 16 -21 13 -29 -4 -10 -6 -9 -6 4 -1 9 -5 17 -10 17 -15 0 -20 -27 -8
-40 9 -10 9 -11 0 -6 -6 3 -14 2 -18 -4 -3 -5 -11 -10 -18 -10 -6 0 -2 7 9 15
10 8 14 15 8 15 -15 0 -46 -35 -37 -43 3 -4 -1 -7 -10 -7 -11 0 -14 -5 -10
-17 6 -16 5 -16 -10 -4 -9 7 -18 11 -18 7 -1 -3 -2 -11 -3 -16 0 -6 -8 -15
-16 -21 -13 -9 -12 -10 2 -6 9 3 19 1 22 -6 3 -9 5 -8 5 1 1 7 6 10 11 7 6 -4
9 -1 8 7 -2 7 3 12 11 10 8 -2 11 3 8 11 -4 10 4 14 26 15 29 1 62 27 52 42
-2 4 2 7 9 7 9 0 12 -7 8 -16 -3 -9 -1 -13 3 -8 5 4 9 17 10 29 1 12 8 24 16
26 11 3 11 1 -1 -7 -12 -8 -11 -10 7 -8 12 0 19 5 17 9 -3 4 0 8 6 8 6 0 8 4
5 10 -4 6 1 7 11 3 11 -4 15 -3 10 5 -3 6 -1 14 5 18 8 4 9 3 5 -4 -4 -7 -2
-13 3 -13 6 -1 16 -2 23 -3 6 0 13 -8 15 -16 4 -13 3 -13 -6 0 -9 12 -11 9
-11 -15 0 -23 3 -27 10 -15 5 8 10 11 10 7 0 -4 -8 -20 -17 -35 -16 -24 -16
-25 -1 -14 12 10 18 10 24 1 4 -7 3 -9 -4 -5 -13 8 -26 -29 -16 -45 4 -7 3 -9
-3 -6 -17 11 -36 -42 -22 -60 10 -11 9 -14 -2 -11 -8 2 -14 -4 -14 -12 0 -8
-2 -17 -5 -20 -16 -16 -30 -52 -24 -62 5 -7 2 -9 -8 -5 -17 6 -18 -8 -4 -33 5
-8 6 -12 1 -8 -13 12 -45 -11 -45 -33 0 -14 -5 -19 -14 -16 -10 4 -12 0 -8
-16 5 -20 4 -21 -13 -7 -17 14 -18 14 -7 -7 11 -19 9 -21 -13 -18 -14 1 -23 0
-21 -3 10 -9 -15 -43 -26 -36 -6 4 -9 1 -6 -7 3 -8 -8 -23 -23 -35 -16 -11
-25 -25 -21 -29 4 -5 1 -5 -7 0 -10 6 -6 13 15 32 22 18 23 21 7 13 -12 -5
-28 -18 -35 -29 -8 -11 -24 -17 -41 -17 -16 1 -31 -2 -33 -6 -3 -5 -9 -6 -14
-3 -4 3 -7 -3 -5 -12 1 -10 8 -17 14 -16 6 2 11 -2 11 -7 0 -6 9 -10 20 -10
11 0 20 -4 20 -10 0 -5 7 -10 15 -10 8 0 15 -5 15 -11 0 -5 4 -8 9 -5 5 4 12
0 14 -6 4 -10 6 -10 6 0 1 7 -6 15 -14 18 -8 4 -12 10 -10 15 7 11 43 -23 38
-36 -3 -5 3 -1 12 10 17 20 17 20 11 -2 -7 -22 6 -26 32 -9 8 5 12 3 10 -6 -2
-8 5 -12 20 -10 13 2 22 -2 22 -10 0 -9 3 -9 10 2 7 11 10 11 10 2 0 -7 4 -11
9 -7 5 3 12 2 14 -2 3 -5 33 -8 66 -7 34 1 64 -3 67 -7 3 -5 14 -4 25 1 13 8
19 7 19 0 0 -6 5 -8 10 -5 8 5 7 12 -2 23 -11 15 -11 15 3 5 9 -7 20 -9 24 -5
5 4 5 2 2 -4 -9 -15 20 -27 29 -12 5 7 2 8 -6 3 -9 -5 -11 -4 -6 4 6 9 11 9
22 0 12 -10 18 -6 16 12 -1 3 5 6 12 6 7 0 13 -6 13 -13 0 -7 -4 -11 -9 -8 -4
3 -8 0 -8 -6 0 -7 7 -9 16 -6 9 3 18 6 20 6 3 0 2 5 -2 12 -4 6 -3 8 3 5 18
-11 63 -16 63 -6 0 6 5 7 10 4 6 -3 10 -1 10 5 0 6 5 8 13 3 22 -14 36 -12 30
5 -5 11 -3 13 8 6 20 -12 40 -14 33 -3 -3 5 -10 6 -16 3 -7 -4 -8 -2 -4 4 5 9
13 9 27 2 18 -10 23 -7 20 15 -1 6 5 2 13 -8 13 -16 14 -16 19 4 4 16 10 20
19 13 20 -16 43 -10 42 9 -1 13 2 15 10 8 15 -13 58 -2 49 12 -4 7 0 8 11 4
11 -4 29 0 44 11 45 31 52 34 49 20 -2 -7 -2 -10 0 -5 3 4 9 5 14 2 5 -4 6 2
2 11 -4 12 -3 15 5 10 11 -7 16 5 13 29 -1 6 4 3 11 -6 11 -13 16 -14 25 -4 7
7 9 17 5 21 -4 5 1 2 11 -5 15 -12 17 -12 11 4 -5 13 -4 16 4 11 7 -4 15 -1
18 8 3 9 10 13 15 10 5 -3 9 1 9 8 0 10 3 9 11 -2 9 -12 10 -11 6 6 -3 13 1
21 9 21 7 0 11 -4 9 -8 -3 -4 2 -10 11 -13 12 -5 15 -2 10 11 -6 14 -5 15 5 6
10 -10 9 -16 -2 -29 -8 -10 -9 -15 -4 -12 6 4 17 3 25 -3 13 -7 12 -9 -2 -9
-9 0 -20 -5 -24 -12 -5 -7 -3 -8 6 -3 8 5 11 3 8 -6 -3 -8 -1 -23 5 -34 9 -17
8 -18 -5 -8 -12 11 -14 9 -12 -10 1 -12 3 -22 4 -22 1 0 3 -8 5 -18 2 -9 -1
-15 -6 -11 -5 3 -6 10 -3 16 4 6 3 8 -3 5 -11 -7 -10 -43 2 -54 4 -5 5 -2 1 5
-4 6 -3 12 3 12 5 0 9 -9 8 -20 -1 -11 -6 -19 -12 -17 -6 3 -10 -16 -10 -48 0
-42 3 -51 15 -47 12 5 13 3 3 -10 -7 -8 -10 -18 -6 -21 3 -4 0 -15 -8 -24 -7
-10 -9 -15 -5 -11 5 4 15 3 23 -3 11 -10 10 -14 -4 -26 -17 -13 -17 -14 -1 -9
25 8 34 -15 13 -31 -11 -7 -13 -13 -7 -13 10 0 10 -5 1 -21 -8 -15 -8 -19 0
-15 14 9 14 0 -1 -27 -10 -20 -10 -21 5 -8 19 15 22 8 7 -20 -8 -13 -7 -19 0
-19 6 0 9 -4 5 -9 -3 -5 0 -13 6 -17 8 -5 9 -3 4 7 -5 8 -4 10 0 6 16 -14 15
-39 -1 -33 -12 4 -12 2 -4 -15 7 -11 16 -17 23 -12 7 4 5 -2 -3 -12 -8 -10
-10 -16 -5 -13 6 3 18 -5 28 -18 10 -13 14 -24 9 -24 -6 0 -12 7 -16 15 -3 8
-11 15 -18 14 -9 0 -10 -2 -1 -5 7 -3 9 -13 6 -22 -3 -9 -3 -14 2 -10 4 4 14
0 22 -10 8 -9 11 -11 7 -3 -5 9 -3 12 5 7 6 -4 9 -12 6 -17 -4 -5 3 -22 14
-38 11 -15 18 -31 15 -33 -2 -3 7 -4 21 -3 22 3 24 1 14 -17 -8 -15 -8 -19 0
-14 7 5 11 -1 11 -14 0 -12 4 -19 9 -15 10 5 61 -43 61 -57 0 -4 9 -5 20 -3
14 3 25 -5 35 -23 8 -15 14 -23 15 -18 0 5 9 1 19 -8 11 -10 17 -24 15 -31 -3
-7 4 -19 16 -25 11 -6 18 -15 15 -20 -3 -6 1 -7 9 -4 9 3 23 -1 31 -10 9 -9
13 -16 10 -16 -4 0 3 -8 16 -19 13 -10 30 -16 38 -13 8 3 12 1 8 -5 -8 -13 20
-26 36 -16 7 4 7 0 -1 -9 -11 -14 -10 -17 7 -23 12 -3 25 -4 30 0 6 3 8 -3 6
-14 -3 -15 0 -18 12 -14 11 4 14 2 9 -5 -4 -7 -1 -12 8 -12 9 0 16 -4 16 -8 0
-4 14 -16 31 -26 22 -13 29 -14 24 -5 -7 11 -6 12 7 2 8 -7 18 -10 21 -7 4 4
4 -3 2 -16 -4 -22 -4 -22 16 -4 18 16 19 16 13 1 -6 -16 5 -22 31 -17 6 1 4
-4 -2 -11 -16 -16 -17 -29 -2 -29 5 0 8 4 5 8 -3 5 1 9 9 9 10 0 11 -5 4 -18
-6 -11 -6 -20 1 -24 5 -3 8 -16 6 -28 -2 -12 1 -27 6 -34 6 -7 0 -20 -17 -37
-27 -27 -33 -42 -12 -30 8 5 8 3 -2 -9 -7 -9 -18 -14 -25 -10 -6 3 -2 -4 8
-16 16 -18 17 -21 3 -16 -12 5 -15 2 -12 -14 2 -12 0 -21 -6 -21 -13 0 -11
-28 3 -32 7 -3 5 -7 -6 -11 -11 -5 -15 -3 -10 5 4 7 3 8 -5 4 -9 -6 -9 -11 1
-24 11 -13 11 -14 -1 -7 -11 6 -13 4 -8 -8 4 -12 1 -17 -11 -17 -14 0 -15 -2
-2 -9 8 -6 18 -7 22 -5 15 9 8 -3 -9 -17 -15 -12 -16 -12 -8 1 6 12 6 13 -6 2
-12 -11 -12 -14 1 -22 10 -7 11 -10 3 -10 -7 0 -13 -5 -13 -11 0 -5 6 -7 13
-4 6 4 4 0 -5 -8 -14 -11 -15 -16 -5 -26 9 -10 8 -11 -8 -5 -18 7 -18 6 -6 -9
7 -9 9 -17 4 -17 -13 0 -12 -30 1 -31 6 0 2 -4 -9 -9 -17 -7 -17 -9 -2 -9 9
-1 17 -6 17 -12 0 -5 -4 -8 -8 -5 -5 3 -9 -1 -9 -9 0 -8 5 -11 11 -8 6 4 3 -3
-7 -15 -15 -16 -16 -20 -4 -18 8 1 23 8 33 16 11 8 8 3 -5 -12 -13 -15 -28
-25 -34 -21 -6 3 -7 1 -3 -6 4 -6 11 -9 16 -6 10 6 7 -21 -3 -31 -12 -12 -8
-26 6 -19 6 4 4 0 -5 -8 -10 -8 -15 -17 -11 -20 3 -4 0 -7 -8 -7 -11 0 -11 -2
1 -10 8 -5 10 -10 4 -10 -18 0 -26 -31 -12 -47 6 -8 7 -13 2 -12 -21 4 -26 -2
-14 -16 10 -12 9 -18 -4 -31 -12 -12 -14 -20 -6 -29 8 -10 7 -14 -2 -18 -11
-4 -11 -6 0 -6 10 -1 10 -6 2 -21 -9 -16 -8 -19 6 -13 13 5 15 3 8 -8 -11 -18
-14 -40 -5 -34 5 2 8 -10 9 -27 0 -17 6 -34 13 -39 6 -4 9 -14 6 -23 -4 -10
-1 -16 9 -16 8 0 12 -5 9 -10 -4 -6 -11 -8 -16 -5 -5 3 -6 -1 -3 -9 3 -9 11
-13 18 -9 6 4 4 -2 -4 -12 -9 -11 -10 -16 -2 -11 8 5 12 1 12 -13 0 -27 10
-51 22 -51 5 0 6 5 2 12 -5 7 -3 8 6 3 10 -6 10 -11 -4 -20 -15 -11 -15 -13 5
-18 11 -3 18 -10 15 -16 -8 -13 14 -62 25 -55 5 3 6 -3 2 -12 -5 -14 -3 -16
12 -11 16 7 16 5 4 -10 -8 -9 -9 -14 -2 -10 10 6 28 -24 25 -43 -1 -14 22 -28
40 -25 16 4 18 2 7 -11 -10 -12 -9 -13 4 -9 10 5 15 1 14 -12 -1 -11 5 -18 15
-18 9 0 20 -4 25 -9 4 -5 3 -6 -4 -2 -18 10 -16 0 5 -24 9 -11 17 -24 17 -28
0 -4 9 -17 20 -29 18 -21 20 -22 39 -5 14 12 17 13 11 2 -15 -25 -15 -43 -1
-30 10 8 13 4 10 -15 -2 -22 0 -24 12 -14 8 6 14 7 14 2 0 -22 40 -55 60 -50
17 4 19 3 9 -9 -9 -11 -8 -14 5 -14 9 0 16 -6 14 -13 -2 -7 2 -14 7 -15 6 -1
10 2 10 7 0 5 3 12 7 16 3 4 5 -4 4 -18 -2 -18 1 -24 10 -20 8 3 11 10 7 17
-3 6 -2 7 2 3 14 -12 15 -38 2 -31 -7 3 -3 -1 7 -10 10 -8 24 -17 30 -20 7 -3
6 -8 -4 -15 -11 -7 809 -11 2743 -11 l2757 0 -1 317 c0 175 -4 327 -9 338 l-9
20 -1 -20 c-1 -15 -3 -16 -7 -5 -4 8 -13 21 -22 30 -13 13 -14 13 -8 -2 3 -10
1 -20 -5 -24 -7 -5 -8 -2 -3 6 6 9 4 12 -6 8 -10 -4 -15 1 -17 15 -1 17 1 19
8 7 8 -13 10 -12 10 4 0 14 -6 17 -25 14 -15 -3 -22 -1 -18 5 4 6 0 8 -11 4
-9 -4 -15 -3 -11 2 3 5 -1 11 -7 14 -7 2 -10 8 -6 12 4 4 14 2 23 -5 9 -7 18
-10 22 -6 3 3 2 6 -4 6 -6 0 -10 7 -9 16 0 9 -5 19 -13 22 -8 2 -11 0 -7 -6 3
-5 -1 -13 -10 -16 -23 -9 -24 -8 -21 16 4 20 47 39 47 19 0 -5 9 -11 20 -14
11 -3 20 -13 20 -22 0 -9 5 -13 10 -10 6 3 24 -3 40 -15 l30 -21 0 676 c0 562
-2 679 -14 690 -7 8 -17 11 -21 7 -5 -4 -5 -1 -1 6 4 6 3 12 -3 12 -5 0 -12
-7 -14 -15 -4 -11 -4 -10 -3 2 1 11 10 18 23 19 13 1 20 -3 17 -7 -3 -5 0 -9
5 -9 8 0 11 254 11 836 0 635 -3 833 -12 828 -8 -5 -9 -2 -5 9 3 10 2 17 -4
17 -6 0 -7 4 -4 10 4 6 -2 7 -18 1 -18 -7 -24 -6 -24 4 0 8 5 12 10 8 5 -3 4
4 -2 16 -7 11 -16 21 -21 21 -6 0 -10 8 -10 18 0 14 -2 15 -10 2 -8 -13 -10
-12 -10 3 0 10 -5 15 -10 12 -6 -4 -10 -3 -9 2 1 4 1 14 0 22 -1 11 -4 11 -18
0 -9 -8 -14 -9 -10 -3 4 7 -1 18 -10 25 -14 12 -16 12 -8 0 5 -10 4 -12 -4 -7
-6 4 -9 12 -5 17 3 6 -2 19 -11 29 -9 10 -14 24 -10 29 3 6 -1 14 -9 17 -9 3
-16 10 -16 16 0 5 5 6 10 3 6 -3 10 -1 10 4 0 6 -5 11 -12 11 -9 0 -9 3 -1 11
13 13 6 39 -9 39 -6 0 -4 -8 3 -17 12 -16 12 -17 -1 -6 -10 8 -15 28 -14 61 0
50 -5 56 -36 37 -12 -7 -13 -6 -4 6 12 15 15 51 3 44 -3 -3 -12 9 -19 25 -8
19 -20 30 -32 30 -12 0 -17 4 -12 12 5 8 0 9 -15 5 -19 -5 -21 -3 -9 11 7 9 8
14 4 10 -5 -4 -16 -2 -24 5 -11 8 -14 8 -9 0 4 -6 3 -14 -3 -18 -9 -5 -15 15
-11 38 1 5 -3 6 -8 2 -6 -3 -8 -13 -5 -23 5 -16 5 -16 -6 1 -11 17 -36 25 -26
8 7 -11 -45 -5 -53 7 -9 14 -43 24 -35 10 5 -7 0 -9 -14 -6 -12 4 -25 2 -28
-4 -3 -5 -15 0 -25 11 -23 25 -37 28 -18 4 13 -15 12 -15 -8 -5 -12 7 -25 17
-28 22 -3 6 -15 10 -26 10 -10 0 -19 6 -19 14 0 7 -8 20 -17 27 -16 13 -17 12
-4 -3 7 -10 9 -18 3 -18 -5 0 -15 14 -21 30 -5 17 -15 30 -21 30 -6 0 -8 5 -4
13 5 8 2 7 -9 -2 -10 -8 -20 -11 -24 -7 -3 3 0 6 7 6 8 0 5 7 -8 19 -12 10
-19 21 -15 25 3 3 -1 6 -10 6 -8 0 -18 9 -22 19 -4 13 -11 18 -22 14 -13 -5
-15 -2 -10 12 6 15 5 16 -8 5 -9 -7 -15 -9 -14 -4 4 25 -2 36 -19 32 -15 -4
-18 0 -17 17 2 13 -3 22 -11 22 -8 0 -14 -5 -14 -10 0 -6 -3 -7 -6 -4 -4 4 -1
13 6 22 11 13 10 14 -5 9 -11 -5 -16 -4 -12 3 8 13 -37 56 -48 46 -5 -5 -3 0
4 10 12 15 12 17 -4 11 -13 -5 -16 -4 -11 4 4 7 1 12 -10 12 -14 0 -15 2 -3
17 10 11 10 14 2 9 -8 -4 -13 -2 -13 4 0 6 -4 9 -9 5 -5 -3 -11 5 -13 17 -2
13 -8 23 -15 23 -6 0 -15 4 -20 9 -5 5 -3 6 5 2 6 -4 12 -2 12 5 0 7 -8 9 -21
6 -17 -4 -19 -3 -10 6 6 6 11 15 11 21 0 5 -3 7 -6 3 -3 -3 -20 7 -38 23 -17
17 -35 30 -39 30 -5 0 -5 4 -2 10 3 5 17 -2 32 -18 16 -17 14 -12 -7 16 -17
23 -38 42 -46 42 -9 0 -13 4 -9 9 3 5 0 13 -6 17 -8 4 -9 3 -5 -4 4 -7 2 -12
-3 -12 -6 0 -11 7 -11 15 0 8 -4 15 -10 15 -5 0 -10 6 -10 14 0 14 -36 32 -54
27 -5 -1 -4 4 2 12 14 17 6 28 -15 20 -9 -4 -13 -1 -11 8 3 17 -52 75 -69 71
-7 -2 -13 2 -13 8 0 5 -7 10 -16 10 -9 0 -12 5 -8 13 5 7 0 6 -11 -3 -11 -9
-16 -10 -11 -2 4 7 2 12 -6 12 -9 0 -9 3 2 10 9 6 10 10 3 10 -6 0 -15 -5 -18
-10 -4 -7 -14 -3 -25 10 -9 11 -23 20 -29 20 -7 0 -9 5 -5 12 4 7 3 8 -4 4 -7
-4 -12 -1 -12 6 0 9 -3 9 -10 -2 -9 -13 -10 -13 -11 0 -1 8 -1 17 -1 20 0 3
-9 7 -21 7 -17 2 -19 0 -7 -7 9 -6 10 -10 3 -10 -6 0 -15 5 -18 10 -4 6 -11 8
-16 5 -5 -3 -6 1 -3 9 3 9 10 13 15 10 5 -3 9 0 9 5 0 18 -18 12 -33 -9 -13
-18 -15 -19 -21 -5 -3 9 -2 13 4 10 6 -3 10 -1 10 4 0 6 -7 11 -15 11 -8 0
-15 6 -15 14 0 20 -17 29 -26 15 -4 -8 -3 -9 4 -5 8 5 11 -1 10 -18 -1 -13 -6
-22 -10 -20 -5 3 -6 9 -3 14 3 5 -7 16 -22 25 -20 11 -22 14 -7 10 16 -4 23 0
27 15 3 11 11 19 19 17 7 -2 10 -2 6 0 -14 8 -8 25 6 20 8 -3 20 2 28 11 11
15 11 15 -3 5 -13 -10 -16 -10 -16 1 0 14 14 16 34 3 7 -5 16 1 23 13 7 13 17
19 26 16 9 -3 12 -1 9 4 -3 6 0 13 9 16 9 3 12 13 9 22 -4 13 -2 12 11 -3 17
-20 17 -20 13 3 -5 20 -3 21 11 10 12 -10 14 -10 8 0 -4 7 -2 12 4 12 6 0 8 5
5 10 -3 6 -2 10 4 10 5 0 12 -6 15 -12 4 -7 4 3 1 22 -4 32 -4 33 8 13 12 -22
13 -22 25 -2 7 11 18 17 24 13 7 -4 8 -3 4 4 -4 7 -3 12 2 12 6 0 9 13 8 29
-1 19 2 27 10 24 7 -3 10 -12 7 -21 -4 -9 -4 -15 -2 -12 35 41 43 54 27 41
-19 -15 -25 -2 -7 16 8 8 7 13 -2 18 -7 5 -10 4 -6 -2 9 -14 -14 -31 -36 -27
-11 1 -16 0 -13 -3 3 -3 -2 -12 -12 -20 -15 -13 -14 -13 6 -3 22 11 23 10 12
-9 -6 -12 -8 -21 -4 -21 3 0 1 -7 -6 -15 -7 -8 -17 -15 -23 -15 -6 0 -3 6 6
13 15 11 15 14 -2 34 -16 19 -20 20 -25 7 -3 -8 -2 -12 4 -9 15 9 12 -1 -4
-14 -11 -9 -16 -9 -22 0 -5 8 -3 9 6 4 9 -6 11 -4 5 4 -5 9 -10 10 -18 2 -14
-14 -57 -14 -57 0 0 5 4 8 8 5 4 -2 9 5 9 16 2 26 32 60 46 51 7 -4 8 0 3 12
-5 15 -4 16 9 5 21 -17 31 -5 14 16 -13 16 -12 16 9 5 13 -7 28 -10 35 -7 9 3
9 5 0 5 -7 1 -13 6 -13 12 0 6 9 8 23 4 22 -7 22 -7 2 9 -20 15 -20 15 3 11
19 -3 22 -1 18 12 -5 12 -4 13 7 5 8 -7 17 -9 20 -5 4 3 -1 12 -11 19 -15 12
-15 12 5 7 22 -5 53 15 53 36 0 5 5 13 12 17 7 4 8 3 4 -4 -4 -7 -2 -12 3 -12
6 0 11 5 11 11 0 5 6 7 13 4 6 -4 3 1 -8 11 -15 13 -16 15 -3 11 16 -5 66 34
69 54 1 5 2 14 3 19 1 12 15 14 24 4 4 -4 1 -4 -7 1 -10 6 -12 4 -7 -4 8 -12
20 -7 22 7 2 20 17 41 25 36 5 -3 6 2 3 11 -4 10 -2 15 7 13 9 -2 14 5 13 20
-1 17 1 20 12 11 10 -8 12 -6 9 10 -3 16 1 21 16 21 12 0 19 7 19 20 0 11 6
20 14 20 8 0 16 7 20 15 3 8 1 15 -5 15 -6 0 -8 4 -4 10 3 5 13 6 23 3 15 -6
16 -5 2 13 -8 10 -11 16 -6 12 9 -7 46 22 46 37 0 5 -5 3 -10 -5 -8 -13 -11
-13 -22 -1 -7 8 -8 11 -2 8 6 -4 23 4 37 17 14 13 28 22 30 20 2 -2 4 3 4 11
0 8 -4 12 -8 9 -4 -2 -11 0 -14 6 -4 6 -3 10 2 9 19 -3 33 2 33 12 0 5 -6 7
-12 4 -7 -4 -3 2 10 12 18 15 20 21 10 32 -11 11 -9 12 12 6 24 -7 24 -6 6 7
-13 11 -16 17 -7 22 6 4 8 13 4 19 -4 7 2 5 12 -3 17 -14 18 -14 7 7 -9 16 -9
24 0 29 6 4 8 3 4 -4 -3 -6 -1 -14 6 -18 7 -4 10 -4 6 1 -4 4 -2 15 5 23 8 11
8 14 0 9 -6 -4 -14 -3 -18 3 -3 5 1 10 9 10 8 0 18 5 22 12 5 7 2 9 -8 6 -8
-4 -15 0 -15 7 0 8 5 13 11 12 5 -1 11 8 12 20 1 12 9 34 18 49 10 14 15 28
12 32 -3 3 -6 0 -6 -7 0 -7 -5 -9 -10 -6 -8 5 -8 11 -1 19 6 7 8 16 4 19 -3 4
-2 7 3 7 5 0 9 17 8 37 0 21 5 41 10 45 7 5 7 8 -1 8 -7 0 -13 5 -13 11 0 5 4
8 9 4 11 -6 7 28 -5 47 -4 6 -3 8 4 4 17 -10 20 27 3 48 -15 18 -15 18 5 8 16
-9 21 -8 21 3 0 8 -4 12 -9 9 -9 -6 -11 37 -2 60 3 9 11 13 18 9 6 -3 2 3 -9
14 -23 24 -49 18 -42 -8 3 -11 0 -22 -5 -26 -7 -3 -8 -1 -4 5 4 7 2 12 -4 12
-6 0 -8 5 -4 12 5 7 3 8 -5 4 -7 -5 -10 -10 -7 -14 3 -3 -2 -11 -11 -17 -15
-11 -16 -15 -3 -31 13 -17 13 -18 0 -8 -26 18 -45 11 -42 -16 1 -14 -1 -20 -5
-15 -23 29 -38 8 -18 -25 5 -9 -1 -7 -15 5 -13 11 -20 14 -16 7 5 -8 -2 -15
-17 -21 -14 -6 -27 -16 -30 -23 -4 -10 -6 -10 -6 0 -1 10 -4 10 -15 0 -8 -7
-11 -17 -8 -23 3 -5 -1 -4 -10 3 -13 10 -20 7 -43 -15 -16 -16 -25 -21 -20
-13 7 12 6 13 -7 3 -8 -7 -18 -10 -21 -6 -4 3 -7 2 -7 -4 0 -10 -8 -12 -54
-16 -13 -1 -22 -5 -19 -9 2 -5 -1 -8 -7 -8 -6 0 -8 -6 -4 -12 5 -10 4 -10 -6
-1 -7 6 -19 9 -28 6 -11 -5 -13 -3 -7 6 4 7 -5 5 -20 -5 l-28 -18 12 22 c6 12
17 22 23 22 6 0 9 3 6 6 -4 3 -17 0 -30 -7 -12 -6 -20 -8 -16 -4 4 5 2 15 -5
24 -11 14 -10 15 7 1 18 -14 19 -13 13 2 -3 10 -1 20 5 24 6 4 8 3 4 -4 -3 -6
-2 -13 3 -17 6 -3 8 5 5 20 -3 18 0 25 11 25 8 0 15 4 15 10 0 5 -6 7 -13 4
-8 -3 -14 2 -14 10 0 8 6 12 14 9 8 -3 13 -2 12 3 -4 21 2 28 12 14 9 -13 10
-13 6 0 -2 8 3 21 12 28 14 11 14 11 -4 6 -20 -6 -20 -5 -1 10 11 9 17 18 14
21 -3 3 -23 -12 -46 -34 -22 -22 -38 -42 -34 -45 3 -3 -2 -6 -11 -6 -9 0 -17
-5 -17 -11 0 -5 4 -8 9 -4 5 3 12 1 16 -4 3 -6 -3 -8 -14 -6 -24 4 -46 -19
-35 -37 5 -10 4 -10 -6 -1 -10 9 -20 4 -47 -22 -19 -19 -32 -38 -29 -44 4 -5
1 -13 -5 -17 -7 -4 -9 -3 -6 3 4 6 0 13 -8 17 -8 3 -14 2 -14 -2 3 -20 -2 -33
-11 -27 -5 3 -10 1 -10 -4 0 -6 -7 -11 -15 -11 -8 0 -19 -9 -25 -20 -6 -11
-15 -18 -20 -15 -4 3 -16 -2 -24 -11 -9 -9 -16 -11 -16 -4 0 6 -5 8 -11 5 -6
-4 -8 -14 -4 -23 4 -12 1 -12 -16 4 -12 10 -19 14 -16 8 4 -7 0 -15 -9 -18 -8
-3 -13 -2 -10 3 3 5 -3 11 -15 14 -17 5 -18 3 -8 -9 10 -13 8 -14 -14 -10 -18
3 -30 -1 -37 -12 -9 -14 -10 -12 -4 8 l6 25 -21 -22 c-25 -26 -40 -31 -21 -7
11 12 11 15 -1 12 -8 -2 -19 -9 -25 -17 -9 -11 -12 -12 -19 -1 -6 9 -4 11 6 5
8 -5 11 -4 6 1 -10 11 -58 14 -51 2 3 -4 11 -5 17 -2 7 4 9 3 4 -1 -10 -11
-48 -14 -41 -3 8 13 -10 10 -25 -4 -11 -11 -13 -10 -8 3 4 13 1 15 -14 12 -10
-3 -16 -10 -12 -17 3 -6 3 -8 -2 -4 -4 4 -15 2 -23 -5 -13 -10 -14 -9 -8 1 10
17 -26 29 -79 26 -37 -2 -43 0 -38 14 4 15 3 15 -6 2 -6 -8 -11 -11 -11 -6 0
6 -5 5 -11 -1 -9 -9 -15 -8 -26 3 -8 8 -19 11 -25 8 -6 -4 -15 0 -20 7 -7 10
-9 8 -5 -8 3 -15 1 -20 -9 -16 -8 3 -14 12 -14 20 0 8 -5 11 -10 8 -6 -4 -8
-12 -4 -18 3 -7 -1 -4 -9 5 -8 10 -17 15 -20 12 -3 -3 -12 -2 -19 2 -20 13
-41 11 -63 -6 -16 -11 -17 -11 -7 0 13 16 16 31 5 29 -5 -1 -12 0 -18 1 -5 1
-17 3 -25 4 -8 0 -14 7 -12 14 1 8 -2 11 -8 7 -6 -3 -8 -11 -5 -16 3 -5 -1 -6
-9 -3 -9 3 -13 10 -10 15 3 5 -2 6 -10 3 -10 -4 -16 -1 -16 7 0 12 -2 12 -9 1
-6 -11 -11 -10 -25 3 -11 11 -16 12 -16 4 0 -7 -7 -5 -16 7 -8 10 -13 14 -10
9 2 -6 -4 -11 -14 -11 -15 0 -17 3 -7 16 6 8 7 12 3 8 -5 -4 -15 -3 -23 3 -7
6 -13 8 -13 4 0 -5 -10 0 -22 11 -12 10 -18 13 -14 6 6 -10 1 -11 -20 -6 -21
5 -25 4 -19 -6 5 -9 4 -11 -4 -6 -9 6 -9 12 1 24 7 10 8 14 4 10 -5 -4 -15 -3
-22 2 -6 6 -18 9 -25 8 -7 -2 -14 3 -15 10 -1 6 -2 15 -3 18 0 4 -7 1 -15 -5
-10 -9 -16 -8 -26 4 -10 12 -16 13 -28 3 -13 -10 -14 -10 -8 0 4 7 2 12 -6 12
-9 0 -9 3 2 10 9 6 10 10 3 10 -6 0 -15 -5 -18 -11 -5 -6 -12 -4 -21 8 -12 16
-15 16 -24 3 -8 -12 -10 -11 -10 7 0 17 -4 20 -22 15 -19 -5 -21 -3 -11 9 10
12 8 15 -7 15 -10 0 -16 -4 -13 -9 3 -5 -4 -4 -16 2 -11 7 -21 14 -21 17 0 3
5 2 12 -2 6 -4 8 -3 4 4 -3 6 -21 9 -39 7 -23 -3 -28 -2 -17 5 9 6 10 10 3 10
-6 0 -15 10 -19 22 l-6 21 -15 -24 c-8 -13 -12 -16 -9 -7 3 9 -1 22 -9 28 -10
8 -16 7 -25 -7 -10 -16 -10 -15 -5 5 4 13 2 22 -5 22 -6 0 -8 5 -4 12 4 7 3 8
-5 4 -6 -4 -9 -11 -6 -16 3 -5 0 -12 -6 -16 -8 -4 -9 -3 -5 4 4 7 2 12 -4 12
-6 0 -8 5 -5 10 3 6 -1 10 -9 10 -9 0 -16 5 -16 10 0 6 -9 10 -21 10 -11 0
-17 5 -14 10 3 6 1 10 -5 10 -6 0 -20 9 -32 20 -12 11 -28 20 -35 20 -8 0 -11
4 -8 10 3 6 -1 7 -9 4 -11 -4 -16 0 -16 12 0 14 -3 15 -12 6 -7 -7 -17 -12
-23 -12 -5 0 -3 5 5 10 12 7 12 10 1 10 -8 0 -11 6 -7 18 5 14 4 14 -9 -2 -14
-18 -15 -19 -15 -2 0 12 -5 16 -15 13 -8 -4 -17 -2 -20 4 -4 5 -11 6 -17 3 -7
-4 -8 -2 -4 5 6 9 11 9 22 0 8 -7 14 -7 14 -1 0 12 -25 23 -42 18 -7 -1 -10
-1 -5 1 14 9 7 23 -12 23 -10 0 -22 7 -25 16 -4 10 -12 14 -22 10 -12 -4 -15
-2 -10 9 3 8 0 14 -7 12 -7 -1 -11 4 -9 11 1 8 -2 11 -8 7 -6 -3 -8 -11 -5
-16 4 -5 1 -9 -4 -9 -6 0 -11 7 -11 16 0 9 -5 12 -12 8 -10 -6 -10 -5 0 8 10
13 8 15 -14 14 -19 -1 -28 4 -30 18 -1 10 -8 24 -15 30 -9 8 -10 8 -5 -1 4 -8
1 -13 -8 -13 -9 0 -13 7 -11 20 3 17 1 19 -16 9 -12 -6 -23 -8 -26 -5 -3 3 2
8 11 12 9 3 16 10 16 15 0 4 -7 6 -15 3 -11 -5 -13 -2 -9 11 6 15 4 16 -13 7
-18 -10 -20 -9 -15 16 3 15 2 24 -2 21 -4 -4 -18 4 -32 18 -26 26 -31 38 -11
27 6 -3 0 5 -15 20 -15 14 -35 26 -44 26 -12 0 -15 6 -11 21 4 14 2 17 -6 11
-14 -12 -40 11 -29 24 4 5 -2 2 -12 -6 -18 -13 -19 -13 -14 1 4 9 -2 20 -14
28 -16 10 -18 10 -12 0 5 -9 2 -10 -10 -6 -10 4 -20 7 -22 7 -2 0 -4 7 -4 15
0 18 -11 19 -29 3 -11 -11 -12 -10 -6 0 4 9 0 15 -14 19 -12 3 -18 10 -14 17
4 6 -1 5 -10 -3 -16 -12 -17 -12 -10 5 6 17 5 17 -11 5 -15 -12 -19 -12 -29 0
-7 8 -8 11 -3 7 14 -12 26 -10 26 4 0 6 -3 8 -7 5 -3 -4 -15 1 -26 10 -11 10
-17 12 -13 6 12 -21 -8 -15 -24 6 -7 11 -17 18 -22 15 -4 -3 -8 2 -8 10 0 19
-16 21 -24 4 -3 -7 -3 -3 -1 9 3 12 0 25 -6 29 -8 5 -9 3 -4 -6 5 -9 4 -11 -4
-6 -6 4 -8 13 -4 19 14 22 11 35 -7 30 -10 -3 -21 0 -24 6 -4 7 -1 9 8 5 11
-4 14 0 11 16 -5 28 -16 39 -22 23 -3 -7 -8 -13 -13 -13 -10 0 -7 27 5 37 4 5
5 1 0 -7 -5 -8 -4 -12 0 -7 12 10 15 38 4 31 -5 -3 -9 2 -9 10 0 14 -11 20
-32 17 -4 0 -5 6 -1 15 5 13 7 13 14 2 6 -9 9 -9 9 -1 0 6 -5 15 -10 18 -6 4
-7 12 -3 18 4 7 -1 6 -11 -2 -15 -13 -17 -12 -12 12 3 19 -1 30 -13 37 -10 5
-20 7 -23 5 -3 -3 -5 2 -5 10 0 11 4 12 14 3 11 -8 12 -7 7 6 -3 9 -10 16 -16
16 -5 0 -6 5 -3 10 6 9 -8 14 -28 11 -4 -1 -4 7 2 17 6 11 6 24 -1 35 -8 15
-12 16 -25 5 -14 -12 -15 -11 -5 9 10 19 9 24 -10 37 -12 9 -18 16 -13 16 6 1
-1 8 -15 16 -14 8 -17 13 -7 10 9 -3 17 -1 17 4 0 6 -10 10 -22 11 -13 0 -17
3 -10 6 10 4 7 9 -8 20 -12 9 -19 21 -16 30 4 9 2 11 -6 7 -8 -5 -9 -2 -5 10
4 10 3 15 -3 11 -9 -5 -14 7 -12 27 1 3 -5 9 -14 12 -10 4 -13 2 -8 -6 4 -7 3
-8 -5 -4 -6 4 -9 18 -7 32 3 13 1 22 -4 19 -5 -3 -11 -1 -15 5 -4 6 -12 7 -18
3 -7 -4 -6 0 2 10 11 15 11 17 -2 17 -8 0 -21 8 -28 17 -8 9 -9 14 -3 10 6 -3
11 0 11 8 0 10 -7 11 -26 4 -25 -9 -25 -8 -7 6 18 14 13 20 -15 17 -4 -1 -6 6
-5 16 1 11 -6 16 -17 16 -13 -2 -15 1 -7 11 8 10 8 15 -1 21 -7 4 -9 3 -6 -3
3 -5 0 -10 -7 -10 -8 0 -12 10 -10 25 2 19 -1 23 -17 19 -17 -4 -18 -3 -8 9
11 13 6 18 -15 15 -5 -1 -6 5 -3 13 4 10 1 13 -8 10 -7 -3 -16 3 -20 15 -3 12
-13 21 -21 21 -8 0 -14 9 -14 21 0 19 -2 20 -17 8 -10 -8 -14 -9 -10 -2 4 6 3
14 -3 18 -5 3 -10 1 -10 -6 0 -7 -3 -9 -6 -6 -4 4 -1 15 7 24 7 10 10 15 5 11
-8 -7 -52 33 -49 44 2 4 -3 5 -11 2 -8 -3 -17 0 -22 7 -5 8 -3 10 7 4 12 -8
12 -6 0 8 -12 15 -31 15 -31 1 0 -3 5 -2 12 2 7 4 8 3 4 -4 -4 -6 -14 -8 -22
-5 -13 5 -13 7 -2 14 11 7 10 10 -1 21 -12 11 -12 10 -6 -2 8 -13 7 -13 -9 -1
-13 11 -14 16 -4 23 9 7 6 8 -9 5 -13 -3 -26 0 -30 5 -4 7 -1 8 8 4 8 -4 6 -1
-3 7 -10 8 -14 17 -10 21 4 4 2 7 -3 6 -19 -4 -38 0 -32 6 13 13 -42 46 -65
39 -18 -5 -20 -4 -8 4 13 9 13 12 1 23 -8 7 -11 8 -8 3 3 -6 -3 -11 -13 -11
-18 0 -18 1 -2 20 16 18 16 18 -5 7 -16 -8 -24 -8 -29 1 -4 7 -3 8 4 4 17 -10
15 1 -5 24 -17 20 -28 20 -1094 20 -929 0 -1078 -2 -1089 -15z m-63 -80 c0 -8
-4 -15 -9 -15 -10 0 -11 14 -1 23 9 10 10 9 10 -8z m2343 -20 c0 -8 -4 -15
-10 -15 -5 0 -7 7 -4 15 4 8 8 15 10 15 2 0 4 -7 4 -15z m-2486 -91 c3 -8 2
-12 -4 -9 -6 3 -10 10 -10 16 0 14 7 11 14 -7z m3021 -453 c3 -5 0 -13 -6 -17
-7 -4 -9 -3 -5 4 3 5 0 13 -6 15 -9 4 -10 6 -1 6 6 1 14 -3 18 -8z m-3620
-161 c-3 -5 -11 -10 -16 -10 -6 0 -7 5 -4 10 3 6 11 10 16 10 6 0 7 -4 4 -10z
m3775 -64 c0 -2 -8 -10 -17 -17 -16 -13 -17 -12 -4 4 13 16 21 21 21 13z m23
-41 c4 -8 3 -16 -1 -19 -4 -3 -9 4 -9 15 -2 23 3 25 10 4z m577 -638 c11 -5 9
-6 -4 -4 -11 1 -21 9 -23 17 -3 10 -2 11 4 4 4 -6 15 -14 23 -17z m530 -432
c11 -13 10 -14 -4 -9 -9 3 -16 10 -16 15 0 13 6 11 20 -6z m-5277 -80 c-3 -9
-8 -14 -10 -11 -3 3 -2 9 2 15 9 16 15 13 8 -4z m7717 -5 c0 -5 -2 -10 -4 -10
-3 0 -8 5 -11 10 -3 6 -1 10 4 10 6 0 11 -4 11 -10z m-460 -74 c0 -2 -8 -10
-17 -17 -16 -13 -17 -12 -4 4 13 16 21 21 21 13z m-1474 -116 c0 -12 -4 -16
-9 -11 -5 5 -6 14 -3 20 10 15 12 14 12 -9z m1667 5 c-3 -9 -8 -14 -10 -11 -3
3 -2 9 2 15 9 16 15 13 8 -4z m-356 -50 c0 -8 -4 -12 -9 -9 -5 3 -6 10 -3 15
9 13 12 11 12 -6z m-1157 -15 c0 -5 -5 -10 -11 -10 -5 0 -7 5 -4 10 3 6 8 10
11 10 2 0 4 -4 4 -10z m141 -67 c13 -16 12 -17 -3 -4 -10 7 -18 15 -18 17 0 8
8 3 21 -13z m74 -3 c3 -5 1 -10 -4 -10 -6 0 -11 5 -11 10 0 6 2 10 4 10 3 0 8
-4 11 -10z m80 -19 c3 -5 2 -12 -3 -15 -5 -3 -9 1 -9 9 0 17 3 19 12 6z m279
-39 c3 -5 -1 -9 -9 -9 -8 0 -12 4 -9 9 3 4 7 8 9 8 2 0 6 -4 9 -8z m-6388
-224 c3 -4 -1 -5 -10 -4 -8 1 -18 5 -22 8 -3 4 1 5 10 4 8 -1 18 -5 22 -8z
m7167 -430 c-9 -10 -21 -18 -27 -18 -6 0 -3 5 7 11 9 6 15 14 13 18 -3 4 1 8
9 8 13 0 12 -4 -2 -19z m-7048 -129 c11 -16 1 -19 -13 -3 -7 8 -8 14 -3 14 5
0 13 -5 16 -11z m6755 -93 c0 -3 -4 -8 -10 -11 -5 -3 -10 -1 -10 4 0 6 5 11
10 11 6 0 10 -2 10 -4z m-20 -51 c-13 -15 -2 -48 13 -38 6 3 7 1 3 -5 -4 -6
-13 -9 -21 -5 -9 3 -15 -1 -15 -8 0 -8 -6 -5 -15 7 -8 10 -14 28 -14 39 1 16
2 16 9 -5 l8 -25 7 23 c4 12 12 22 17 22 5 0 6 5 2 12 -4 7 -3 8 5 4 9 -6 9
-11 1 -21z m59 -58 c0 -9 -2 -8 -6 1 -2 6 -10 9 -15 6 -7 -4 -8 -2 -4 5 9 13
26 5 25 -12z m-45 -15 c3 -5 -1 -9 -9 -9 -8 0 -12 4 -9 9 3 4 7 8 9 8 2 0 6
-4 9 -8z m-29 -62 c3 -5 1 -10 -4 -10 -6 0 -11 5 -11 10 0 6 2 10 4 10 3 0 8
-4 11 -10z m-6250 -259 c3 -5 2 -12 -3 -15 -5 -3 -9 1 -9 9 0 17 3 19 12 6z
m6488 -116 c12 -8 17 -15 11 -15 -15 0 -54 39 -54 53 0 7 5 4 11 -5 5 -10 19
-24 32 -33z m-6463 15 c0 -5 -5 -10 -11 -10 -5 0 -7 5 -4 10 3 6 8 10 11 10 2
0 4 -4 4 -10z m15 -30 c3 -6 -1 -7 -9 -4 -18 7 -21 14 -7 14 6 0 13 -4 16 -10z
m6529 -69 c4 -5 -3 -7 -14 -4 -23 6 -26 13 -6 13 8 0 17 -4 20 -9z m-6494 -15
c0 -3 -4 -8 -10 -11 -5 -3 -10 -1 -10 4 0 6 5 11 10 11 6 0 10 -2 10 -4z
m6585 -66 c3 -5 1 -10 -4 -10 -6 0 -11 5 -11 10 0 6 2 10 4 10 3 0 8 -4 11
-10z m-6500 -179 c3 -5 2 -12 -3 -15 -5 -3 -9 1 -9 9 0 17 3 19 12 6z m15 -56
c14 -19 14 -19 -2 -6 -10 7 -18 18 -18 24 0 6 1 8 3 6 1 -2 9 -13 17 -24z
m7030 -355 c0 -5 -2 -10 -4 -10 -3 0 -8 5 -11 10 -3 6 -1 10 4 10 6 0 11 -4
11 -10z m418 -215 c-3 -3 -9 2 -12 12 -6 14 -5 15 5 6 7 -7 10 -15 7 -18z m57
-185 c3 -5 1 -10 -4 -10 -6 0 -11 5 -11 10 0 6 2 10 4 10 3 0 8 -4 11 -10z
m165 -180 c0 -5 -5 -10 -11 -10 -5 0 -7 5 -4 10 3 6 8 10 11 10 2 0 4 -4 4
-10z m-7573 -92 c-3 -8 -6 -5 -6 6 -1 11 2 17 5 13 3 -3 4 -12 1 -19z m-132
-176 c-3 -3 -11 0 -18 7 -9 10 -8 11 6 5 10 -3 15 -9 12 -12z m-60 -31 c3 -5
2 -12 -3 -15 -5 -3 -9 1 -9 9 0 17 3 19 12 6z m220 -150 c3 -5 2 -12 -3 -15
-5 -3 -9 1 -9 9 0 17 3 19 12 6z m-60 -111 c3 -5 1 -10 -4 -10 -6 0 -11 5 -11
10 0 6 2 10 4 10 3 0 8 -4 11 -10z m-260 -211 c-4 -5 2 -9 11 -9 10 0 15 -3
11 -6 -3 -4 -14 -3 -24 1 -10 5 -22 7 -27 6 -5 -1 -4 5 3 13 14 16 36 12 26
-5z m839 -47 c3 -5 -1 -9 -9 -9 -8 0 -12 4 -9 9 3 4 7 8 9 8 2 0 6 -4 9 -8z
m-579 -32 c3 -5 1 -10 -4 -10 -6 0 -11 5 -11 10 0 6 2 10 4 10 3 0 8 -4 11
-10z m140 -19 c3 -5 2 -12 -3 -15 -5 -3 -9 1 -9 9 0 17 3 19 12 6z m6762 -513
c-3 -8 -6 -5 -6 6 -1 11 2 17 5 13 3 -3 4 -12 1 -19z m-26 -2 c5 3 9 1 9 -4 0
-21 -26 -19 -27 2 0 11 1 15 4 8 3 -6 9 -10 14 -6z m110 -21 c5 0 14 -7 20
-15 9 -12 10 -10 6 8 -3 12 -1 20 4 16 5 -3 9 -14 9 -25 0 -21 20 -25 37 -8 8
8 13 7 18 -2 5 -7 4 -10 -3 -5 -6 3 -13 2 -17 -4 -7 -11 43 -25 82 -23 12 0
21 -5 20 -10 -1 -6 14 -11 35 -11 20 0 35 -3 32 -8 -3 -5 -9 -6 -14 -3 -4 3
-10 1 -12 -5 -3 -10 -88 8 -88 20 0 3 -6 7 -13 7 -29 0 -147 65 -147 81 0 15
-2 15 -10 2 -5 -8 -10 -10 -10 -4 0 21 15 25 28 7 7 -10 17 -18 23 -18z m-143
3 c-4 -15 -52 -58 -67 -58 -6 0 -11 -5 -11 -12 0 -6 -3 -9 -6 -5 -3 3 -14 -3
-25 -14 -24 -24 -39 -24 -39 -1 0 14 2 15 10 2 9 -14 14 -7 11 13 -1 5 3 5 9
2 7 -4 14 2 17 13 3 15 12 20 31 19 18 -1 26 3 24 11 -1 8 2 11 9 6 9 -5 10
-2 6 10 -4 9 -3 14 2 11 5 -3 12 -1 16 5 8 14 16 13 13 -2z m-5754 -44 c3 -8
2 -12 -4 -9 -6 3 -10 10 -10 16 0 14 7 11 14 -7z m5825 -32 c-11 -33 -32 -37
-56 -10 -9 10 -11 18 -5 18 6 0 14 -4 17 -10 11 -18 35 -11 35 10 0 11 4 20 9
20 6 0 6 -11 0 -28z m61 18 c18 -12 2 -12 -25 0 -13 6 -15 9 -5 9 8 0 22 -4
30 -9z m-293 -39 c0 -11 -5 -17 -9 -15 -4 3 -8 0 -8 -5 0 -6 -3 -10 -7 -9 -5
0 -16 -2 -25 -6 -11 -5 -25 0 -40 14 l-23 22 23 -11 c15 -8 27 -9 35 -3 12 10
18 12 38 12 5 0 7 5 4 10 -3 6 -2 10 4 10 5 0 9 -9 8 -19z m573 -25 c10 -13
10 -17 3 -12 -15 8 -16 5 -7 -18 3 -9 11 -13 17 -9 5 3 7 1 3 -5 -3 -5 -1 -12
6 -14 7 -3 5 -7 -6 -11 -10 -4 -15 -3 -11 3 3 6 2 10 -2 10 -12 0 -34 61 -27
72 3 5 7 8 8 6 1 -2 8 -12 16 -22z m-6095 4 c3 -6 -1 -7 -9 -4 -18 7 -21 14
-7 14 6 0 13 -4 16 -10z m5407 -11 c1 5 8 3 15 -4 10 -11 2 -13 -40 -12 -29 0
-40 2 -24 4 18 3 25 8 20 16 -4 8 -1 7 9 -1 9 -7 18 -9 20 -3z m-96 -46 c-2
-9 -8 -18 -15 -19 -8 -2 -8 -1 0 3 8 4 7 8 -2 14 -11 7 -11 9 -1 9 7 0 10 5 6
12 -4 6 -3 8 4 5 5 -4 9 -15 8 -24z m191 0 c-4 -3 -2 -12 4 -20 9 -9 8 -13 0
-13 -6 0 -11 4 -11 9 0 4 -12 6 -27 4 l-28 -4 25 15 c25 16 49 21 37 9z m639
-35 c4 -7 3 -8 -4 -4 -7 4 -12 3 -12 -1 0 -13 33 -30 53 -27 9 1 15 -2 11 -7
-3 -5 -10 -7 -15 -4 -5 4 -9 1 -9 -5 0 -7 8 -9 20 -5 13 4 20 2 20 -7 0 -10 3
-9 10 2 8 12 10 12 10 1 0 -11 3 -11 17 0 9 8 14 9 10 3 -7 -13 74 -28 83 -16
6 9 70 9 70 1 0 -12 -29 -18 -36 -8 -4 7 -10 7 -18 0 -15 -13 -106 -12 -106 1
0 5 -4 6 -10 3 -17 -11 -84 14 -109 41 -20 21 -22 27 -10 35 18 11 16 11 25
-3z m-836 -14 c0 -8 -5 -12 -10 -9 -6 4 -8 11 -5 16 9 14 15 11 15 -7z m245 6
c3 -6 -1 -7 -9 -4 -18 7 -21 14 -7 14 6 0 13 -4 16 -10z m-267 -35 c-3 -3 -9
2 -12 12 -6 14 -5 15 5 6 7 -7 10 -15 7 -18z m274 -17 c-8 -8 -9 -4 -5 13 4
13 8 18 11 10 2 -7 -1 -18 -6 -23z m538 7 c13 -14 21 -25 18 -25 -2 0 -15 11
-28 25 -13 14 -21 25 -18 25 2 0 15 -11 28 -25z m-792 -35 c0 -16 -3 -30 -7
-30 -5 0 -6 -11 -4 -24 5 -26 -11 -43 -23 -25 -4 8 -3 9 4 5 19 -12 14 25 -5
40 -17 13 -17 14 1 7 14 -5 17 -3 11 7 -5 9 -4 11 4 6 8 -5 10 0 7 18 -3 14
-1 26 3 26 4 0 8 -13 9 -30z m-5128 10 c8 -5 11 -10 5 -10 -5 0 -17 5 -25 10
-8 5 -10 10 -5 10 6 0 17 -5 25 -10z m5325 -23 c-30 -47 -115 -110 -115 -87 0
6 6 10 14 10 7 0 35 22 62 49 56 57 60 60 39 28z m862 -23 c-3 -3 -12 -4 -19
-1 -8 3 -5 6 6 6 11 1 17 -2 13 -5z m40 0 c-3 -3 -12 -4 -19 -1 -8 3 -5 6 6 6
11 1 17 -2 13 -5z m60 0 c-3 -3 -12 -4 -19 -1 -8 3 -5 6 6 6 11 1 17 -2 13 -5z
m-6208 -20 c4 3 8 -1 8 -9 0 -11 -4 -12 -14 -4 -7 6 -13 17 -12 23 0 7 2 6 6
-2 2 -6 8 -10 12 -8z m5031 -55 c0 -5 -4 -9 -10 -9 -5 0 -7 -8 -3 -17 7 -19 5
-18 -17 11 -13 17 -13 18 -1 11 11 -6 13 -4 8 8 -4 11 -2 14 9 10 7 -3 14 -9
14 -14z m73 1 c-13 -5 -23 -15 -23 -21 0 -7 -3 -9 -6 -6 -10 10 16 37 35 36
11 0 9 -3 -6 -9z m-93 -61 c0 -4 -7 -14 -15 -22 -8 -8 -12 -17 -9 -20 3 -3 1
-8 -4 -11 -5 -3 -16 1 -23 10 -10 12 -10 15 1 12 8 -2 14 4 15 12 1 8 6 14 13
13 17 -4 15 7 -5 31 -18 21 -18 21 5 2 12 -11 22 -23 22 -27z m-4817 -17 c4 9
6 9 6 1 2 -20 -16 -24 -30 -5 -13 15 -12 16 3 4 13 -10 17 -10 21 0z m4844
-64 c-3 -8 -6 -5 -6 6 -1 11 2 17 5 13 3 -3 4 -12 1 -19z m-57 -18 c0 -16 -5
-30 -11 -30 -5 0 -7 -4 -4 -10 10 -15 -5 -12 -22 6 -15 14 -14 15 3 12 15 -2
19 3 18 25 0 15 4 27 8 27 4 0 8 -13 8 -30z m-4653 -45 c0 -8 -4 -12 -9 -9 -5
3 -6 10 -3 15 9 13 12 11 12 -6z m4638 -44 c-6 -5 -25 10 -25 20 0 5 6 4 14
-3 8 -7 12 -15 11 -17z m-4621 11 c3 -5 -1 -9 -9 -9 -8 0 -12 4 -9 9 3 4 7 8
9 8 2 0 6 -4 9 -8z m4606 -37 c14 -19 14 -19 -2 -6 -10 7 -18 18 -18 24 0 6 1
8 3 6 1 -2 9 -13 17 -24z m56 -30 c37 -62 43 -79 30 -87 -7 -5 -5 -8 7 -8 20
0 23 -23 5 -42 -7 -7 -14 -18 -15 -23 -1 -6 -6 -21 -12 -35 -9 -22 -9 -20 -8
17 1 22 5 39 10 36 4 -2 7 0 7 6 0 5 -6 12 -12 15 -7 3 -3 3 10 0 12 -3 22 -2
22 1 0 4 -10 16 -22 27 -13 11 -17 17 -10 13 7 -4 12 0 12 9 0 9 -6 15 -12 14
-7 -2 -12 5 -10 15 2 9 -2 17 -8 17 -6 0 -9 4 -6 9 3 4 -3 19 -14 31 -23 26
-25 33 -9 28 6 -2 22 -22 35 -43z m54 10 c14 -19 14 -19 -2 -6 -10 7 -18 18
-18 24 0 6 1 8 3 6 1 -2 9 -13 17 -24z m-66 -227 c-3 -4 0 -8 6 -8 6 0 4 -13
-7 -32 -9 -18 -18 -35 -18 -38 -13 -52 -18 -89 -16 -104 5 -36 -9 -86 -25 -86
-14 0 -14 2 0 16 14 14 14 17 1 30 -18 19 -20 31 -2 16 10 -8 13 -6 13 9 0 13
-5 18 -15 14 -11 -4 -11 -2 -3 8 7 8 8 18 4 22 -4 5 -1 5 6 1 7 -4 12 -1 12 9
0 9 -4 14 -8 11 -5 -3 -9 1 -9 8 0 8 7 12 16 9 11 -3 10 0 -4 13 -15 12 -16
15 -3 11 21 -7 31 3 17 19 -8 9 -7 18 1 31 9 16 10 15 5 -7 -6 -23 -5 -24 9
-7 16 21 14 53 -4 49 -6 -1 -9 1 -6 6 3 5 12 9 20 9 8 0 13 -4 10 -9z m3 -225
c-2 -16 -4 -5 -4 22 0 28 2 40 4 28 2 -13 2 -35 0 -50z m28 -51 c-3 -3 -11 0
-18 7 -9 10 -8 11 6 5 10 -3 15 -9 12 -12z m-79 -17 c-1 -8 -5 -17 -8 -21 -5
-4 -4 16 1 34 3 9 9 -1 7 -13z m131 9 c-3 -3 -12 -4 -19 -1 -8 3 -5 6 6 6 11
1 17 -2 13 -5z m80 -10 c-3 -3 -12 -4 -19 -1 -8 3 -5 6 6 6 11 1 17 -2 13 -5z
m70 -10 c-3 -3 -12 -4 -19 -1 -8 3 -5 6 6 6 11 1 17 -2 13 -5z m-216 -16 c16
3 35 -26 24 -36 -3 -3 -5 0 -5 7 0 7 -5 9 -12 5 -7 -4 -8 -3 -4 4 9 16 -7 15
-22 0 -7 -7 -12 -10 -13 -7 0 2 -2 12 -4 22 -2 11 1 15 8 10 7 -4 19 -6 28 -5z
m109 -14 c14 -1 27 -3 30 -4 3 -1 9 -2 14 -1 5 1 13 -4 17 -11 7 -11 9 -10 9
1 0 8 6 11 18 6 9 -4 39 -9 67 -11 27 -3 52 -8 55 -12 3 -4 23 -8 44 -9 22 -1
44 -7 50 -13 7 -7 0 -8 -24 -4 -33 7 -34 6 -20 -12 10 -13 6 -12 -12 4 -17 15
-28 20 -33 13 -3 -6 -11 -9 -16 -5 -5 3 -6 10 -3 16 4 6 1 9 -7 6 -8 -3 -23
-1 -33 5 -16 8 -18 6 -12 -9 6 -18 5 -18 -9 0 -8 11 -15 14 -15 7 0 -9 -5 -8
-16 3 -14 14 -17 14 -30 1 -19 -18 -25 -19 -21 -2 1 8 -12 12 -40 12 -22 0
-39 4 -35 9 3 5 -2 7 -10 3 -9 -3 -24 1 -35 9 -16 13 -16 14 12 7 16 -3 41 -7
55 -9z m350 -75 c0 -11 -5 -17 -10 -14 -6 4 -8 12 -4 18 3 7 -2 3 -10 -7 -17
-21 -20 -18 -10 8 9 23 34 20 34 -5z m68 -4 c29 -9 57 -13 62 -10 6 3 7 -1 4
-10 -5 -11 -2 -14 12 -8 11 4 15 3 10 -5 -3 -6 -2 -13 4 -17 5 -3 10 -2 10 4
0 7 8 7 26 1 34 -13 53 -13 34 1 -10 7 -11 9 -2 7 8 -2 13 -7 12 -12 -3 -14
28 -28 42 -20 7 4 8 3 4 -5 -6 -8 0 -10 21 -6 23 4 24 4 8 -4 -16 -8 -17 -10
-3 -10 9 -1 23 -8 32 -16 9 -9 17 -11 21 -5 4 6 21 2 46 -10 22 -12 37 -25 34
-30 -8 -12 -7 -12 32 -1 36 10 60 -7 66 -49 2 -13 10 -26 18 -28 11 -3 11 -1
-1 7 -13 9 -13 11 2 11 23 0 19 -34 -5 -50 -11 -6 -17 -8 -14 -3 3 4 -1 19 -9
33 -7 14 -13 19 -14 13 0 -7 -5 -13 -11 -13 -5 0 -8 4 -5 9 7 11 -22 23 -35
15 -5 -3 -9 -2 -8 3 4 25 -3 32 -30 29 -20 -2 -28 1 -27 12 0 8 -5 17 -13 20
-9 3 -11 0 -6 -8 5 -9 4 -11 -4 -6 -6 4 -9 12 -6 17 4 5 -3 9 -14 9 -12 0 -21
5 -21 11 0 8 -5 7 -15 -1 -13 -11 -14 -10 -9 4 6 16 -10 23 -19 9 -2 -5 -2 -2
-1 5 2 6 -1 12 -6 12 -6 0 -10 -6 -11 -12 0 -7 -5 -3 -11 10 -12 25 -28 28
-47 10 -7 -7 -12 -8 -11 -3 5 22 -1 31 -20 32 -13 1 -18 -2 -13 -10 5 -9 2 -8
-9 0 -8 7 -19 9 -23 5 -5 -4 -5 -2 -2 4 6 11 -19 29 -35 26 -5 -1 -8 3 -8 8 0
6 -5 10 -11 10 -5 0 -8 -4 -5 -8 3 -5 -1 -9 -9 -9 -8 0 -12 4 -10 8 6 9 -24
21 -35 14 -4 -3 -10 2 -14 10 -7 18 -11 18 52 0z m-5348 -5 c0 -5 -2 -10 -4
-10 -3 0 -8 5 -11 10 -3 6 -1 10 4 10 6 0 11 -4 11 -10z m5640 -70 c0 -5 -5
-10 -11 -10 -5 0 -7 5 -4 10 3 6 8 10 11 10 2 0 4 -4 4 -10z m104 -59 c-2 -3
-12 3 -22 13 -16 17 -16 18 5 5 12 -7 20 -15 17 -18z m111 -61 c3 -5 2 -10 -4
-10 -5 0 -13 5 -16 10 -3 6 -2 10 4 10 5 0 13 -4 16 -10z m-5698 -411 c2 -32
-9 -33 -13 -2 -2 14 3 33 9 33 1 0 3 -14 4 -31z m132 -158 c7 -5 12 -13 10
-18 -2 -5 -12 -1 -21 9 -19 19 -13 24 11 9z m124 -106 c-3 -9 -8 -14 -10 -11
-3 3 -2 9 2 15 9 16 15 13 8 -4z m127 -99 c0 -3 -4 -8 -10 -11 -5 -3 -10 -1
-10 4 0 6 5 11 10 11 6 0 10 -2 10 -4z"/>
<path d="M8490 2296 c0 -2 7 -7 16 -10 8 -3 12 -2 9 4 -6 10 -25 14 -25 6z"/>
<path d="M8627 899 c7 -7 15 -10 18 -7 3 3 -2 9 -12 12 -14 6 -15 5 -6 -5z"/>
<path d="M8670 871 c0 -6 4 -12 8 -15 5 -3 9 1 9 9 0 8 -4 15 -9 15 -4 0 -8
-4 -8 -9z"/>
<path d="M8718 853 c6 -3 9 -10 5 -16 -4 -7 2 -5 12 3 10 8 16 10 12 3 -9 -14
9 -27 23 -18 18 11 -7 33 -38 32 -15 0 -21 -2 -14 -4z"/>
<path d="M3825 8989 c4 -5 50 -44 103 -87 124 -97 337 -310 435 -433 123 -156
326 -469 377 -584 83 -186 63 -163 206 -239 147 -78 181 -101 246 -171 26 -27
69 -73 95 -101 45 -48 280 -222 438 -325 349 -228 730 -385 1038 -428 164 -23
374 -28 487 -12 105 16 153 50 356 257 94 96 175 174 181 174 19 0 -2 -74 -51
-179 -27 -56 -45 -108 -42 -116 7 -20 36 -13 136 33 81 37 120 66 220 161 97
93 130 94 130 6 0 -68 -27 -323 -41 -395 -15 -71 -64 -210 -99 -280 -45 -88
-140 -227 -226 -330 -113 -134 -114 -136 -102 -171 7 -22 7 -38 -3 -61 -17
-42 -199 -225 -274 -275 -33 -22 -68 -50 -78 -61 -18 -20 -18 -21 20 -45 21
-13 75 -46 120 -72 59 -35 119 -84 216 -179 134 -131 173 -175 279 -316 31
-41 100 -118 154 -170 53 -52 120 -118 149 -147 57 -58 60 -58 199 -73 55 -6
118 -19 140 -29 102 -47 162 -145 191 -314 5 -30 24 -56 91 -124 l84 -86 0
2592 0 2591 -2591 0 c-1815 0 -2588 -3 -2584 -11z"/>
<path d="M1270 8730 c0 -5 5 -10 10 -10 6 0 10 5 10 10 0 6 -4 10 -10 10 -5 0
-10 -4 -10 -10z"/>
<path d="M635 7980 c-3 -5 -2 -10 4 -10 5 0 13 5 16 10 3 6 2 10 -4 10 -5 0
-13 -4 -16 -10z"/>
<path d="M605 5820 c3 -5 8 -10 11 -10 2 0 4 5 4 10 0 6 -5 10 -11 10 -5 0 -7
-4 -4 -10z"/>
<path d="M7432 5657 c-8 -10 -6 -13 7 -13 11 0 17 6 14 13 -3 7 -6 13 -8 13
-1 0 -7 -6 -13 -13z"/>
<path d="M7461 5233 c-1 -17 16 -25 25 -12 4 7 3 9 -4 5 -5 -3 -13 0 -15 6 -4
9 -6 10 -6 1z"/>
<path d="M1305 4600 c3 -5 8 -10 11 -10 2 0 4 5 4 10 0 6 -5 10 -11 10 -5 0
-7 -4 -4 -10z"/>
<path d="M1396 4365 c4 -8 11 -15 16 -15 6 0 5 6 -2 15 -7 8 -14 15 -16 15 -2
0 -1 -7 2 -15z"/>
<path d="M8506 4328 c3 -5 10 -6 15 -3 13 9 11 12 -6 12 -8 0 -12 -4 -9 -9z"/>
<path d="M8765 4121 c-3 -5 -2 -12 3 -15 5 -3 9 1 9 9 0 17 -3 19 -12 6z"/>
<path d="M1135 3440 c-3 -5 -1 -10 4 -10 6 0 11 5 11 10 0 6 -2 10 -4 10 -3 0
-8 -4 -11 -10z"/>
<path d="M1066 3418 c3 -5 10 -6 15 -3 13 9 11 12 -6 12 -8 0 -12 -4 -9 -9z"/>
<path d="M1107 3419 c7 -7 15 -10 18 -7 3 3 -2 9 -12 12 -14 6 -15 5 -6 -5z"/>
<path d="M2325 2680 c-3 -5 -1 -10 4 -10 6 0 11 5 11 10 0 6 -2 10 -4 10 -3 0
-8 -4 -11 -10z"/>
<path d="M2593 2151 c0 -11 5 -18 9 -15 4 3 5 11 1 19 -7 21 -12 19 -10 -4z"/>
<path d="M2630 2120 c0 -5 5 -10 11 -10 5 0 7 -5 3 -12 -4 -7 -3 -8 5 -4 9 6
9 11 0 22 -14 17 -19 18 -19 4z"/>
<path d="M3080 1670 c-9 -6 -10 -10 -3 -10 6 0 15 5 18 10 8 12 4 12 -15 0z"/>
</g>
</svg>
